<?xml version="1.0" encoding="UTF-8" standalone="no"?>
<svg
   xmlns:svg="http://www.w3.org/2000/svg"
   xmlns="http://www.w3.org/2000/svg"
   version="1.1"
   height="17px"
   width="17px">
   <path
    d="M 4.790074,2.8406988 C 6.0305277,1.7394611 7.9478222,1.4968927 9.6473202,1.701899 11.340882,1.8769449 13,2.6841977 13.373986,4.3524188 c 0.268058,0.9662652 -0.313133,2.3592377 -1.161854,3.1072006 -0.882567,0.9196877 -1.051498,1.0256117 -1.858723,2 -0.4830243,0.5972246 -0.332837,1.6690196 -0.344689,2.3702456 -0.6724221,0 -2.3218776,0.02142 -2.994301,0.02142 C 7.0115022,10.836799 6.8055456,9 7.473035,8.3181981 8.1852727,7.5068453 8.3376683,7.4477431 9.3758482,6.5427548 10.370075,5.7026193 10,4.2598154 8.5195796,4.2354528 c -1.8053562,0 -2.0927745,1.1002499 -2.0927745,2.2105063 -0.6724234,0 -2.3469311,0.025052 -3.0193544,0.025052 C 3.3915667,5.3161727 3.8116135,3.6677731 4.790074,2.8406988 4.585032,3.019122 4.2248965,3.3325044 4.6381737,2.9728793 l 0.070802,-0.061611 z m 2.0381445,10.0538462 3.3398755,0 0,2.699579 -3.3398755,0 z M 0,8.5 C 0,3.8055794 3.8055794,0 8.5,0 13.194419,0 17,3.8055794 17,8.5 17,13.194419 13.194419,17 8.5,17 3.8055794,17 0,13.194419 0,8.5 z" 
    style="fill:#e5e9e8;fill-opacity:1;fill-rule:evenodd;stroke:none"
   />
</svg>

