<?xml version="1.0" encoding="UTF-8" standalone="no"?>
<svg
   fill="none"
   height="15.000001"
   viewBox="0 0 16.000002 15.000001"
   width="16.000002"
   version="1.1"
   id="svg4"
   xmlns="http://www.w3.org/2000/svg"
   xmlns:svg="http://www.w3.org/2000/svg">
  <path
     clip-rule="evenodd"
     d="M 16,10 V 2 C 16,0.89543005 15.1046,4.7277832e-8 14,4.7277832e-8 H 2 C 0.89543,4.7277832e-8 0,0.89543005 0,2 v 8 c 0,1.1046 0.89543,2 2,2 h 3 l 3,3 3,-3 h 3 c 1.1046,0 2,-0.8954 2,-2 z M 3,4 C 3,3.44772 3.44772,3 4,3 h 8 c 0.5523,0 1,0.44772 1,1 0,0.55228 -0.4477,1 -1,1 H 4 C 3.44772,5 3,4.55228 3,4 Z M 4,7 C 3.44772,7 3,7.4477 3,8 3,8.5523 3.44772,9.0000001 4,9.0000001 H 7 C 7.55229,9.0000001 8,8.5523 8,8 8,7.4477 7.55229,7 7,7 Z"
     fill="#e5e9e8"
     fill-rule="evenodd"
     id="path2" />
</svg>
