<svg xmlns="http://www.w3.org/2000/svg" width="17" height="16">
  <path d="m4.2 15.2 9.7 0 0-2.8-9.7 0 0 2.8zm0-6.9 9.7 0 0-4.2-1.7 0q-0.4 0-0.7-0.3-0.3-0.3-0.3-0.7l0-1.7-6.9 0 0 6.9zM16.6 9q0-0.3-0.2-0.5-0.2-0.2-0.5-0.2-0.3 0-0.5 0.2Q15.2 8.7 15.2 9q0 0.3 0.2 0.5 0.2 0.2 0.5 0.2 0.3 0 0.5-0.2Q16.6 9.3 16.6 9ZM18 9l0 4.5q0 0.1-0.1 0.2-0.1 0.1-0.2 0.1l-2.4 0 0 1.7q0 0.4-0.3 0.7-0.3 0.3-0.7 0.3l-10.4 0q-0.4 0-0.7-0.3-0.3-0.3-0.3-0.7l0-1.7-2.4 0q-0.1 0-0.2-0.1Q0 13.6 0 13.5L0 9Q0 8.1 0.6 7.5 1.2 6.9 2.1 6.9l0.7 0 0-5.9q0-0.4 0.3-0.7Q3.4 0 3.8 0l7.3 0q0.4 0 1 0.2 0.5 0.2 0.8 0.5l1.6 1.6q0.3 0.3 0.5 0.8 0.2 0.5 0.2 1l0 2.8 0.7 0q0.9 0 1.5 0.6Q18 8.1 18 9Z" fill="#e5e9e8"/>
</svg>
