<?xml version="1.0" encoding="UTF-8" standalone="no"?>
<svg
   xmlns:svg="http://www.w3.org/2000/svg"
   xmlns="http://www.w3.org/2000/svg"
   version="1.1"
   width="17"
   height="17">
  <path
     style="fill:#e5e9e8;fill-opacity:1;fill-rule:nonzero;stroke:none"
     d="M 7.4478985,0.06536203 C 2.7898708,0.64638452 -0.51565945,4.8940707 0.06536304,9.5520985 0.64638552,14.210126 4.8940717,17.515656 9.5520995,16.934634 14.210127,16.353612 17.515657,12.105925 16.934635,7.4478975 16.353613,2.7898698 12.105926,-0.51566045 7.4478985,0.06536203 M 5.8806031,10.217744 7.6450525,9.0881233 7.0903908,14.464833 1.8190184,12.793757 3.6478975,11.587992 C 0.30643118,6.9847609 4.690089,3.1267399 7.7219095,2.9305826 10.856514,2.727775 15.345485,5.0064332 13.909539,10.83429 L 11.064743,10.39423 C 12.106965,6.3070843 9.0693499,5.8746921 7.9696224,5.838672 6.3235469,5.784757 4.3205009,7.856282 5.8806031,10.217744 z"
  />
</svg>
