<?xml version="1.0" encoding="UTF-8" standalone="no"?>
<svg
   xmlns:svg="http://www.w3.org/2000/svg"
   xmlns="http://www.w3.org/2000/svg"
   version="1.1"
   width="17"
   height="17">
  <path
     style="fill:#e5e9e8;fill-opacity:1;fill-rule:nonzero;stroke:none"
     d="M 9.5520994,0.06536203 C 14.210127,0.64638452 17.515657,4.8940707 16.934635,9.5520985 16.353612,14.210126 12.105926,17.515656 7.4478984,16.934634 2.7898709,16.353612 -0.51565906,12.105925 0.06536294,7.4478975 0.64638494,2.7898698 4.8940719,-0.51566045 9.5520994,0.06536203 M 11.119395,10.217744 9.3549454,9.0881233 9.9096071,14.464833 15.18098,12.793757 13.3521,11.587992 C 16.693567,6.9847609 12.309909,3.1267399 9.2780884,2.9305826 6.1434839,2.727775 1.6545129,5.0064332 3.0904589,10.83429 l 2.844796,-0.44006 C 4.8930329,6.3070843 7.930648,5.8746921 9.0303755,5.838672 10.676451,5.784757 12.679497,7.856282 11.119395,10.217744 z"
  />
</svg>
