<?xml version="1.0" encoding="UTF-8" standalone="no"?>
<!-- Created with Inkscape (http://www.inkscape.org/) -->

<svg
   xmlns:dc="http://purl.org/dc/elements/1.1/"
   xmlns:cc="http://creativecommons.org/ns#"
   xmlns:rdf="http://www.w3.org/1999/02/22-rdf-syntax-ns#"
   xmlns:svg="http://www.w3.org/2000/svg"
   xmlns="http://www.w3.org/2000/svg"
   xmlns:xlink="http://www.w3.org/1999/xlink"
   version="1.1"
   width="14.12557"
   height="14.029749"
   id="svg8935">
  <defs
     id="defs8937">
    <linearGradient
       x1="712.98596"
       y1="249.98053"
       x2="717.60321"
       y2="244.67865"
       id="linearGradient12592"
       xlink:href="#linearGradient2485"
       gradientUnits="userSpaceOnUse"
       gradientTransform="matrix(1,0,0,-1,0.453976,493.3688)" />
    <linearGradient
       id="linearGradient2485">
      <stop
         id="stop2486"
         style="stop-color:#ffffff;stop-opacity:1"
         offset="0" />
      <stop
         id="stop2487"
         style="stop-color:#aaaaaa;stop-opacity:1"
         offset="1" />
    </linearGradient>
    <linearGradient
       x1="64.608963"
       y1="715.75946"
       x2="61.995983"
       y2="712.16724"
       id="linearGradient12519"
       xlink:href="#linearGradient12513"
       gradientUnits="userSpaceOnUse" />
    <linearGradient
       id="linearGradient12513">
      <stop
         id="stop12515"
         style="stop-color:#000000;stop-opacity:1"
         offset="0" />
      <stop
         id="stop12517"
         style="stop-color:#2a2a2a;stop-opacity:1"
         offset="1" />
    </linearGradient>
  </defs>
  <metadata
     id="metadata8940">
    <rdf:RDF>
      <cc:Work
         rdf:about="">
        <dc:format>image/svg+xml</dc:format>
        <dc:type
           rdf:resource="http://purl.org/dc/dcmitype/StillImage" />
        <dc:title></dc:title>
      </cc:Work>
    </rdf:RDF>
  </metadata>
  <g
     transform="translate(-290.07765,-476.79609)"
     id="layer1">
    <rect
       width="11.965315"
       height="11.908838"
       x="291.14224"
       y="477.91699"
       id="rect6472"
       style="color:#000000;fill:#ffffff;fill-opacity:0;fill-rule:evenodd;stroke:none;stroke-width:0.83269;marker:none;display:inline" />
    <g
       transform="matrix(0.823809,0,0,0.639827,-291.4127,326.38358)"
       id="g1661">
      <path
         d="m 718.3596,243.1986 c 1.0177,0.7535 1.9383,1.9048 2.7914,3.5759 -1.8334,3.5913 -3.3519,5.0981 -6.102,5.0981 -2.75,0 -5.5802,-1.8728 -7.196,-5.1815 1.8334,-3.5914 5.4431,-5.3526 8.3072,-4.6092 m -4.3843,0.3061 -1.0395,-4.0779 m -1.5179,5.9334 -1.55,-2.5302 m 7.259,0.2222 0.1148,-4.7275 m 2.4251,5.351 1.5295,-3.7884 m 0.6191,5.3042 1.6145,-1.9398"
         id="path4926"
         style="color:#000000;fill:url(#linearGradient12592);fill-opacity:1;fill-rule:evenodd;stroke:#000000;stroke-width:1.10190868;stroke-linecap:round;stroke-linejoin:miter;stroke-miterlimit:4;stroke-opacity:1;stroke-dasharray:none;stroke-dashoffset:0;marker:none;display:inline" />
      <path
         d="m 67,714 a 3.5,4 0 1 1 -7,0 3.5,4 0 1 1 7,0 z"
         transform="matrix(0.842506,0,0,0.954024,661.2863,-434.5226)"
         id="path5671"
         style="color:#000000;fill:url(#linearGradient12519);fill-opacity:1;fill-rule:evenodd;stroke:none;stroke-width:3.02474809;marker:none;display:inline" />
      <path
         d="m 67,714 a 3.5,4 0 1 1 -7,0 3.5,4 0 1 1 7,0 z"
         transform="matrix(0.269046,0,0,0.308688,696.6634,24.57494)"
         id="path12489"
         style="color:#000000;fill:#ffffff;fill-opacity:1;fill-rule:evenodd;stroke:none;stroke-width:3.02474809;marker:none;display:inline" />
    </g>
  </g>
</svg>
