<?xml version="1.0" encoding="UTF-8" standalone="no"?>
<!-- Created with Inkscape (http://www.inkscape.org/) -->

<svg
   xmlns:dc="http://purl.org/dc/elements/1.1/"
   xmlns:cc="http://creativecommons.org/ns#"
   xmlns:rdf="http://www.w3.org/1999/02/22-rdf-syntax-ns#"
   xmlns:svg="http://www.w3.org/2000/svg"
   xmlns="http://www.w3.org/2000/svg"
   xmlns:xlink="http://www.w3.org/1999/xlink"
   version="1.1"
   width="18.06176"
   height="18.028467"
   id="svg5960">
  <defs
     id="defs5962">
    <radialGradient
       cx="171.77553"
       cy="153.06299"
       r="7.4696794"
       fx="171.77553"
       fy="153.06299"
       id="radialGradient5855"
       xlink:href="#linearGradient2888"
       gradientUnits="userSpaceOnUse"
       gradientTransform="matrix(1.122233,1.252981,-2.05495,1.830229,297.3402,-339.2527)" />
    <linearGradient
       id="linearGradient2888">
      <stop
         id="stop2889"
         style="stop-color:#ffffff;stop-opacity:1"
         offset="0" />
      <stop
         id="stop2894"
         style="stop-color:#8ab3de;stop-opacity:1"
         offset="1" />
    </linearGradient>
    <linearGradient
       id="linearGradient3480">
      <stop
         id="stop3482"
         style="stop-color:#646464;stop-opacity:1"
         offset="0" />
      <stop
         id="stop3484"
         style="stop-color:#000000;stop-opacity:1"
         offset="1" />
    </linearGradient>
    <linearGradient
       x1="8"
       y1="251"
       x2="14.320742"
       y2="257.66202"
       id="linearGradient8966"
       xlink:href="#linearGradient3480"
       gradientUnits="userSpaceOnUse"
       gradientTransform="translate(0,0.0207681)" />
    <linearGradient
       x1="8"
       y1="251"
       x2="14.320742"
       y2="257.66202"
       id="linearGradient9006"
       xlink:href="#linearGradient3480"
       gradientUnits="userSpaceOnUse"
       gradientTransform="matrix(1,0,0,0.997925,299.57196,287.1751)" />
  </defs>
  <metadata
     id="metadata5965">
    <rdf:RDF>
      <cc:Work
         rdf:about="">
        <dc:format>image/svg+xml</dc:format>
        <dc:type
           rdf:resource="http://purl.org/dc/dcmitype/StillImage" />
        <dc:title></dc:title>
      </cc:Work>
    </rdf:RDF>
  </metadata>
  <g
     transform="translate(-303.54145,-533.60924)"
     id="layer1">
    <g
       transform="matrix(1,0,0,0.997925,299.57196,287.15437)"
       id="g5796">
      <path
         d="m 186,159 a 7,7 0 1 1 -14,0 7,7 0 1 1 14,0 z"
         transform="matrix(1.00786,0,0,1.007983,-167.1731,96.0569)"
         id="path4220"
         style="color:#000000;fill:none;stroke:#000000;stroke-width:0.94033492;stroke-linecap:round;stroke-linejoin:round;stroke-miterlimit:0;stroke-opacity:0.26512966;stroke-dasharray:none;stroke-dashoffset:0;marker:none;display:inline" />
      <rect
         width="16"
         height="16"
         x="5.0272999"
         y="248.02901"
         id="rect10601"
         style="color:#000000;fill:none;stroke:none;stroke-width:1;marker:none;display:inline" />
      <path
         d="M 18.03125,259 16,261.0312 l 3,3 2.03125,-2.0312 -3,-3 z"
         id="path10605"
         style="fill:#000000;fill-opacity:1;fill-rule:evenodd;stroke:none" />
      <path
         d="m 186,159 a 7,7 0 1 1 -14,0 7,7 0 1 1 14,0 z"
         transform="matrix(1.00786,0,0,1.007983,-167.8785,95.25998)"
         id="path10607"
         style="color:#000000;fill:url(#radialGradient5855);fill-opacity:1;fill-rule:evenodd;stroke:#000000;stroke-width:0.99317169;stroke-linecap:round;stroke-linejoin:round;stroke-miterlimit:0;stroke-opacity:1;stroke-dasharray:none;stroke-dashoffset:0;marker:none;display:inline" />
    </g>
    <path
       d="m 310.57196,537.6543 2,0 0.0273,2.99378 3,0.0289 -0.0273,1.98966 -3,-0.029 0.0273,3.00006 -2,0 -0.0273,-3.00006 -3.0273,0 0.0273,-1.98956 3.0273,0 -0.0273,-2.99378 z"
       id="path10609"
       style="fill:url(#linearGradient9006);fill-opacity:1;fill-rule:evenodd;stroke:none" />
  </g>
</svg>
